<svg width="304" height="88" viewBox="0 0 304 88" fill="none" xmlns="http://www.w3.org/2000/svg">
<g clip-path="url(#clip0)">
<rect width="304" height="88" fill="white"/>
<path d="M33.376 57.56L33.124 61.808C31.432 59 28.408 57.2 24.664 57.2C18.976 57.2 14.692 61.52 14.692 67.28C14.692 73.04 18.976 77.396 24.664 77.396C28.408 77.396 31.432 75.596 33.124 72.788L33.34 77H34.816V57.56H33.376ZM24.772 75.704C20.056 75.704 16.492 72.104 16.492 67.28C16.492 62.528 20.056 58.892 24.772 58.892C29.56 58.892 33.052 62.456 33.052 67.28C33.052 72.14 29.56 75.704 24.772 75.704ZM41.3742 53.564H43.6062V51.08H41.3742V53.564ZM41.6262 77H43.3902V57.56H41.6262V77Z" fill="#0000FF"/>
<path d="M31.87 15.02L31.315 16.907C29.576 15.39 27.319 14.465 24.729 14.465C18.735 14.465 14.258 18.979 14.258 25.01C14.258 31.041 18.735 35.592 24.729 35.592C27.282 35.592 29.502 34.704 31.204 33.187L31.685 35H35.903V15.02H31.87ZM25.173 30.486C22.028 30.486 19.734 28.118 19.734 25.01C19.734 21.865 22.028 19.534 25.173 19.534C28.318 19.534 30.612 21.865 30.612 25.01C30.612 28.155 28.318 30.486 25.173 30.486ZM58.6369 35L51.7919 24.492L58.2299 15.02H52.3099L48.5729 20.829L45.1319 15.02H39.0269L45.3539 24.751L38.5829 35H44.5399L48.5729 28.414L52.5319 35H58.6369ZM79.855 24.973C79.855 19.201 75.637 14.465 69.495 14.465C63.575 14.465 59.135 19.016 59.135 25.01C59.135 31.004 63.612 35.592 69.495 35.592C74.157 35.592 77.968 32.817 79.411 28.451H73.75C72.936 29.894 71.382 30.782 69.495 30.782C66.868 30.782 65.092 29.265 64.611 26.527H79.744C79.818 26.009 79.855 25.491 79.855 24.973ZM69.495 19.09C71.937 19.09 73.676 20.422 74.453 22.864H64.759C65.388 20.496 67.09 19.09 69.495 19.09ZM83.7004 35H89.1024V7.842H83.7004V35ZM110.207 35.592C115.276 35.592 118.606 32.928 118.606 28.858C118.606 23.974 114.425 23.308 111.169 22.716C109.097 22.346 107.395 22.013 107.395 20.681C107.395 19.534 108.394 18.794 110.059 18.794C111.946 18.794 113.056 19.571 113.093 21.162H118.236C118.199 17.166 115.017 14.465 110.207 14.465C105.397 14.465 102.178 17.092 102.178 20.866C102.178 25.565 106.248 26.416 109.43 26.971C111.539 27.304 113.278 27.711 113.278 29.08C113.278 30.412 111.909 31.115 110.429 31.115C108.505 31.115 107.136 30.227 107.099 28.451H101.845C101.845 32.706 105.212 35.592 110.207 35.592ZM133.457 14.465C130.978 14.465 128.758 15.353 127.056 16.87L126.131 15.02H122.579V42.215H127.981V33.927C129.498 35 131.385 35.629 133.457 35.629C139.488 35.629 143.928 31.078 143.928 25.01C143.928 18.979 139.488 14.465 133.457 14.465ZM133.013 30.486C129.868 30.486 127.574 28.155 127.574 25.01C127.574 21.902 129.868 19.534 133.013 19.534C136.158 19.534 138.452 21.902 138.452 25.01C138.452 28.155 136.158 30.486 133.013 30.486ZM158.012 14.909C155.422 14.909 153.646 15.723 152.203 17.499L151.241 15.02H147.8V35H153.202V24.64C153.202 21.384 154.386 20.015 157.42 20.015H159.788V14.909H158.012ZM162.867 12.356H168.232V7.361H162.867V12.356ZM162.867 35H168.269V15.02H162.867V35ZM184.813 14.576C182.112 14.576 179.707 15.723 178.19 17.499L177.154 15.02H173.454V35H178.856V24.529C178.856 21.31 180.558 19.312 183.333 19.312C185.664 19.312 186.811 20.755 186.811 23.789V35H192.213V22.901C192.213 17.832 189.364 14.576 184.813 14.576ZM213.289 15.02L212.401 17.018C210.662 15.427 208.368 14.465 205.778 14.465C200.191 14.465 195.825 18.905 195.825 24.492C195.825 30.116 200.191 34.519 205.778 34.519C207.924 34.519 209.885 33.853 211.476 32.743V33.483C211.476 36.406 209.219 38.182 206.481 38.182C204.483 38.182 202.374 37.257 201.745 35.444H196.38C197.305 39.995 201.153 42.77 206.555 42.77C212.882 42.77 216.767 38.959 216.767 32.706V15.057L213.289 15.02ZM206.407 29.672C203.447 29.672 201.301 27.489 201.301 24.529C201.301 21.532 203.447 19.349 206.407 19.349C209.367 19.349 211.513 21.532 211.513 24.529C211.513 27.489 209.367 29.672 206.407 29.672ZM241.369 24.973C241.369 19.201 237.151 14.465 231.009 14.465C225.089 14.465 220.649 19.016 220.649 25.01C220.649 31.004 225.126 35.592 231.009 35.592C235.671 35.592 239.482 32.817 240.925 28.451H235.264C234.45 29.894 232.896 30.782 231.009 30.782C228.382 30.782 226.606 29.265 226.125 26.527H241.258C241.332 26.009 241.369 25.491 241.369 24.973ZM231.009 19.09C233.451 19.09 235.19 20.422 235.967 22.864H226.273C226.902 20.496 228.604 19.09 231.009 19.09ZM255.426 14.909C252.836 14.909 251.06 15.723 249.617 17.499L248.655 15.02H245.214V35H250.616V24.64C250.616 21.384 251.8 20.015 254.834 20.015H257.202V14.909H255.426Z" fill="black"/>
<rect x="260" y="30" width="22" height="5" fill="#0000FF"/>
</g>
<defs>
<clipPath id="clip0">
<rect width="304" height="88" fill="white"/>
</clipPath>
</defs>
</svg>
