<?xml version="1.0" standalone="no"?>
<!DOCTYPE svg PUBLIC "-//W3C//DTD SVG 20010904//EN"
 "http://www.w3.org/TR/2001/REC-SVG-20010904/DTD/svg10.dtd">
<svg version="1.0" xmlns="http://www.w3.org/2000/svg"
 width="512.000000pt" height="512.000000pt" viewBox="0 0 512.000000 512.000000"
 preserveAspectRatio="xMidYMid meet">
<metadata>
Created by potrace 1.11, written by Peter Selinger 2001-2013
</metadata>
<g transform="translate(0.000000,512.000000) scale(0.100000,-0.100000)"
fill="#000000" stroke="none">
<path d="M900 3648 c-197 -41 -271 -67 -393 -138 -223 -131 -404 -363 -471
-605 -10 -33 -21 -74 -27 -91 -15 -50 -11 -494 5 -556 60 -228 160 -403 312
-549 140 -133 281 -207 509 -266 99 -26 412 -25 500 1 115 34 195 68 277 117
46 28 87 51 91 52 4 1 18 -21 30 -48 12 -28 26 -56 30 -63 11 -17 557 -18 575
0 9 9 12 254 12 1039 0 921 -2 1029 -16 1043 -13 14 -52 16 -274 16 -293 0
-275 5 -315 -87 -13 -29 -27 -53 -31 -53 -4 0 -31 16 -61 36 -168 111 -360
165 -583 163 -69 -1 -145 -6 -170 -11z m362 -663 c107 -20 163 -49 234 -120
105 -105 143 -226 124 -397 -31 -269 -291 -435 -563 -359 -215 59 -336 260
-306 508 18 143 110 274 234 332 38 18 136 43 190 50 6 0 45 -6 87 -14z"/>
<path d="M2760 2031 c-6 -12 -10 -114 -10 -261 0 -147 4 -249 10 -261 10 -19
34 -19 1185 -19 l1175 0 0 280 0 280 -1175 0 c-1151 0 -1175 0 -1185 -19z"/>
</g>
</svg>
