<svg width="398" height="88" viewBox="0 0 398 88" fill="none" xmlns="http://www.w3.org/2000/svg">
<g clip-path="url(#clip0)">
<rect width="398" height="88" fill="white"/>
<path d="M33.376 57.56L33.124 61.808C31.432 59 28.408 57.2 24.664 57.2C18.976 57.2 14.692 61.52 14.692 67.28C14.692 73.04 18.976 77.396 24.664 77.396C28.408 77.396 31.432 75.596 33.124 72.788L33.34 77H34.816V57.56H33.376ZM24.772 75.704C20.056 75.704 16.492 72.104 16.492 67.28C16.492 62.528 20.056 58.892 24.772 58.892C29.56 58.892 33.052 62.456 33.052 67.28C33.052 72.14 29.56 75.704 24.772 75.704ZM49.9062 57.524C46.8102 57.524 44.5422 58.964 43.2462 61.412L42.9222 57.56H41.6262V77H43.3902V66.2C43.3902 62.06 45.8742 59.18 49.7622 59.18H51.5982V57.524H49.9062ZM63.8154 75.38C60.9354 75.38 59.2794 73.688 59.2794 70.772V59.144H66.0834V57.632H59.2794V51.908H57.5154V57.632H53.1234V59.144H57.5154V70.844C57.5154 74.696 59.8554 77.036 63.6354 77.036H66.2274V75.38H63.8154ZM70.4133 53.564H72.6453V51.08H70.4133V53.564ZM70.6653 77H72.4293V57.56H70.6653V77ZM88.8202 57.632H82.1602V56.12C82.1602 52.556 83.4202 51.332 86.9842 51.332H88.7842V49.856H86.6962C82.2322 49.856 80.4322 51.692 80.4322 56.084V57.632H76.3642V59.144H80.4322V77H82.1962V59.144H88.8202V57.632ZM92.4211 53.564H94.6531V51.08H92.4211V53.564ZM92.6731 77H94.4371V57.56H92.6731V77ZM109.568 77.396C113.888 77.396 117.416 74.912 118.784 70.952H116.984C115.616 73.94 112.88 75.704 109.568 75.704C104.888 75.704 101.324 72.068 101.324 67.316C101.324 62.528 104.852 58.892 109.568 58.892C112.88 58.892 115.688 60.656 116.984 63.572H118.748C117.416 59.72 113.96 57.2 109.568 57.2C103.844 57.2 99.524 61.52 99.524 67.316C99.524 73.04 103.88 77.396 109.568 77.396ZM123.253 53.564H125.485V51.08H123.253V53.564ZM123.505 77H125.269V57.56H123.505V77ZM149.04 57.56L148.788 61.808C147.096 59 144.072 57.2 140.328 57.2C134.64 57.2 130.356 61.52 130.356 67.28C130.356 73.04 134.64 77.396 140.328 77.396C144.072 77.396 147.096 75.596 148.788 72.788L149.004 77H150.48V57.56H149.04ZM140.436 75.704C135.72 75.704 132.156 72.104 132.156 67.28C132.156 62.528 135.72 58.892 140.436 58.892C145.224 58.892 148.716 62.456 148.716 67.28C148.716 72.14 145.224 75.704 140.436 75.704ZM157.29 77H159.054V50.684H157.29V77ZM175.495 53.564H177.727V51.08H175.495V53.564ZM175.747 77H177.511V57.56H175.747V77ZM193.326 57.2C190.122 57.2 187.35 58.892 185.946 61.52L185.586 57.56H184.29V77H186.054V65.912C186.054 62.024 189.186 58.82 192.93 58.82C196.854 58.82 199.158 61.412 199.158 65.84V77H200.922V65.48C200.922 60.548 198.006 57.2 193.326 57.2ZM214.847 75.38C211.967 75.38 210.311 73.688 210.311 70.772V59.144H217.115V57.632H210.311V51.908H208.547V57.632H204.155V59.144H208.547V70.844C208.547 74.696 210.887 77.036 214.667 77.036H217.259V75.38H214.847ZM239.164 67.244C239.164 61.592 235.204 57.2 229.516 57.2C223.936 57.2 219.724 61.556 219.724 67.28C219.724 73.04 223.936 77.396 229.516 77.396C233.584 77.396 236.788 75.236 238.588 71.348H236.716C235.276 74.084 232.72 75.668 229.516 75.668C225.088 75.668 221.74 72.464 221.488 67.928H239.128C239.128 67.712 239.164 67.46 239.164 67.244ZM229.516 58.856C233.728 58.856 237.004 61.808 237.4 66.272H221.488C221.956 61.916 225.196 58.856 229.516 58.856ZM244.197 77H245.961V50.684H244.197V77ZM252.739 77H254.503V50.684H252.739V77ZM261.03 53.564H263.262V51.08H261.03V53.564ZM261.282 77H263.046V57.56H261.282V77ZM286.097 57.56L285.809 61.7C284.189 58.964 281.201 57.2 277.673 57.2C272.309 57.2 268.169 61.34 268.169 66.776C268.169 72.212 272.273 76.352 277.673 76.352C281.093 76.352 283.973 74.732 285.629 72.176V74.408C285.629 79.592 282.677 82.652 278.033 82.652C274.721 82.652 272.057 81.032 271.013 78.152H269.249C270.401 82.004 273.569 84.308 278.033 84.308C283.829 84.308 287.357 80.492 287.357 74.192V57.56H286.097ZM277.817 74.66C273.353 74.66 269.969 71.276 269.969 66.776C269.969 62.276 273.353 58.892 277.817 58.892C282.317 58.892 285.593 62.24 285.593 66.776C285.593 71.312 282.317 74.66 277.817 74.66ZM311.938 67.244C311.938 61.592 307.978 57.2 302.29 57.2C296.71 57.2 292.498 61.556 292.498 67.28C292.498 73.04 296.71 77.396 302.29 77.396C306.358 77.396 309.562 75.236 311.362 71.348H309.49C308.05 74.084 305.494 75.668 302.29 75.668C297.862 75.668 294.514 72.464 294.262 67.928H311.902C311.902 67.712 311.938 67.46 311.938 67.244ZM302.29 58.856C306.502 58.856 309.778 61.808 310.174 66.272H294.262C294.73 61.916 297.97 58.856 302.29 58.856ZM326.006 57.2C322.802 57.2 320.03 58.892 318.626 61.52L318.266 57.56H316.97V77H318.734V65.912C318.734 62.024 321.866 58.82 325.61 58.82C329.534 58.82 331.838 61.412 331.838 65.84V77H333.602V65.48C333.602 60.548 330.686 57.2 326.006 57.2ZM348.384 77.396C352.704 77.396 356.232 74.912 357.6 70.952H355.8C354.432 73.94 351.696 75.704 348.384 75.704C343.704 75.704 340.14 72.068 340.14 67.316C340.14 62.528 343.668 58.892 348.384 58.892C351.696 58.892 354.504 60.656 355.8 63.572H357.564C356.232 59.72 352.776 57.2 348.384 57.2C342.66 57.2 338.34 61.52 338.34 67.316C338.34 73.04 342.696 77.396 348.384 77.396ZM380.105 67.244C380.105 61.592 376.146 57.2 370.458 57.2C364.878 57.2 360.666 61.556 360.666 67.28C360.666 73.04 364.878 77.396 370.458 77.396C374.526 77.396 377.73 75.236 379.53 71.348H377.658C376.218 74.084 373.662 75.668 370.458 75.668C366.03 75.668 362.682 72.464 362.43 67.928H380.07C380.07 67.712 380.105 67.46 380.105 67.244ZM370.458 58.856C374.67 58.856 377.945 61.808 378.342 66.272H362.43C362.898 61.916 366.138 58.856 370.458 58.856Z" fill="#0000FF"/>
<path d="M31.87 15.02L31.315 16.907C29.576 15.39 27.319 14.465 24.729 14.465C18.735 14.465 14.258 18.979 14.258 25.01C14.258 31.041 18.735 35.592 24.729 35.592C27.282 35.592 29.502 34.704 31.204 33.187L31.685 35H35.903V15.02H31.87ZM25.173 30.486C22.028 30.486 19.734 28.118 19.734 25.01C19.734 21.865 22.028 19.534 25.173 19.534C28.318 19.534 30.612 21.865 30.612 25.01C30.612 28.155 28.318 30.486 25.173 30.486ZM58.6369 35L51.7919 24.492L58.2299 15.02H52.3099L48.5729 20.829L45.1319 15.02H39.0269L45.3539 24.751L38.5829 35H44.5399L48.5729 28.414L52.5319 35H58.6369ZM79.855 24.973C79.855 19.201 75.637 14.465 69.495 14.465C63.575 14.465 59.135 19.016 59.135 25.01C59.135 31.004 63.612 35.592 69.495 35.592C74.157 35.592 77.968 32.817 79.411 28.451H73.75C72.936 29.894 71.382 30.782 69.495 30.782C66.868 30.782 65.092 29.265 64.611 26.527H79.744C79.818 26.009 79.855 25.491 79.855 24.973ZM69.495 19.09C71.937 19.09 73.676 20.422 74.453 22.864H64.759C65.388 20.496 67.09 19.09 69.495 19.09ZM83.7004 35H89.1024V7.842H83.7004V35ZM110.207 35.592C115.276 35.592 118.606 32.928 118.606 28.858C118.606 23.974 114.425 23.308 111.169 22.716C109.097 22.346 107.395 22.013 107.395 20.681C107.395 19.534 108.394 18.794 110.059 18.794C111.946 18.794 113.056 19.571 113.093 21.162H118.236C118.199 17.166 115.017 14.465 110.207 14.465C105.397 14.465 102.178 17.092 102.178 20.866C102.178 25.565 106.248 26.416 109.43 26.971C111.539 27.304 113.278 27.711 113.278 29.08C113.278 30.412 111.909 31.115 110.429 31.115C108.505 31.115 107.136 30.227 107.099 28.451H101.845C101.845 32.706 105.212 35.592 110.207 35.592ZM133.457 14.465C130.978 14.465 128.758 15.353 127.056 16.87L126.131 15.02H122.579V42.215H127.981V33.927C129.498 35 131.385 35.629 133.457 35.629C139.488 35.629 143.928 31.078 143.928 25.01C143.928 18.979 139.488 14.465 133.457 14.465ZM133.013 30.486C129.868 30.486 127.574 28.155 127.574 25.01C127.574 21.902 129.868 19.534 133.013 19.534C136.158 19.534 138.452 21.902 138.452 25.01C138.452 28.155 136.158 30.486 133.013 30.486ZM158.012 14.909C155.422 14.909 153.646 15.723 152.203 17.499L151.241 15.02H147.8V35H153.202V24.64C153.202 21.384 154.386 20.015 157.42 20.015H159.788V14.909H158.012ZM162.867 12.356H168.232V7.361H162.867V12.356ZM162.867 35H168.269V15.02H162.867V35ZM184.813 14.576C182.112 14.576 179.707 15.723 178.19 17.499L177.154 15.02H173.454V35H178.856V24.529C178.856 21.31 180.558 19.312 183.333 19.312C185.664 19.312 186.811 20.755 186.811 23.789V35H192.213V22.901C192.213 17.832 189.364 14.576 184.813 14.576ZM213.289 15.02L212.401 17.018C210.662 15.427 208.368 14.465 205.778 14.465C200.191 14.465 195.825 18.905 195.825 24.492C195.825 30.116 200.191 34.519 205.778 34.519C207.924 34.519 209.885 33.853 211.476 32.743V33.483C211.476 36.406 209.219 38.182 206.481 38.182C204.483 38.182 202.374 37.257 201.745 35.444H196.38C197.305 39.995 201.153 42.77 206.555 42.77C212.882 42.77 216.767 38.959 216.767 32.706V15.057L213.289 15.02ZM206.407 29.672C203.447 29.672 201.301 27.489 201.301 24.529C201.301 21.532 203.447 19.349 206.407 19.349C209.367 19.349 211.513 21.532 211.513 24.529C211.513 27.489 209.367 29.672 206.407 29.672ZM241.369 24.973C241.369 19.201 237.151 14.465 231.009 14.465C225.089 14.465 220.649 19.016 220.649 25.01C220.649 31.004 225.126 35.592 231.009 35.592C235.671 35.592 239.482 32.817 240.925 28.451H235.264C234.45 29.894 232.896 30.782 231.009 30.782C228.382 30.782 226.606 29.265 226.125 26.527H241.258C241.332 26.009 241.369 25.491 241.369 24.973ZM231.009 19.09C233.451 19.09 235.19 20.422 235.967 22.864H226.273C226.902 20.496 228.604 19.09 231.009 19.09ZM255.426 14.909C252.836 14.909 251.06 15.723 249.617 17.499L248.655 15.02H245.214V35H250.616V24.64C250.616 21.384 251.8 20.015 254.834 20.015H257.202V14.909H255.426Z" fill="black"/>
<rect x="260" y="30" width="22" height="5" fill="#0000FF"/>
</g>
<defs>
<clipPath id="clip0">
<rect width="398" height="88" fill="white"/>
</clipPath>
</defs>
</svg>
